<?xml version="1.0" encoding="UTF-8"?>
<svg version="1.1" xmlns="http://www.w3.org/2000/svg" width="379" height="282">
<path d="M0 0 C2.39617748 3.32249529 1.98013814 5.76435864 1.375 9.6875 C0.77125829 15.18825783 1.6079035 18.27331532 4.1328125 23.10546875 C5 25 5 25 4.875 27.75 C4.441875 28.86375 4.441875 28.86375 4 30 C3.7525 30.78375 3.505 31.5675 3.25 32.375 C2 35 2 35 0.65234375 36.484375 C-0.9734035 38.30521193 -2.07666676 39.72978617 -3 42 C-2.60764467 45.90113304 -1.41269258 49.35815373 0 53 C0.32871094 53.89460938 0.65742188 54.78921875 0.99609375 55.7109375 C3.70375565 61.88482805 11.26214547 64.25702564 17 67 C18.33468559 67.66395527 19.66851678 68.32964586 21 69 C20.96519531 68.15695313 20.93039063 67.31390625 20.89453125 66.4453125 C20.86746094 65.34960938 20.84039062 64.25390625 20.8125 63.125 C20.76029297 61.48917969 20.76029297 61.48917969 20.70703125 59.8203125 C20.80371094 58.88960937 20.90039062 57.95890625 21 57 C24.04681061 54.96879293 24.60118324 54.75340125 28.01171875 54.8046875 C28.76904297 54.81113281 29.52636719 54.81757813 30.30664062 54.82421875 C31.09232422 54.84097656 31.87800781 54.85773438 32.6875 54.875 C33.48478516 54.88402344 34.28207031 54.89304688 35.10351562 54.90234375 C37.069139 54.92588415 39.03460775 54.96175453 41 55 C41 53.68 41 52.36 41 51 C39.72382813 51.02320313 38.44765625 51.04640625 37.1328125 51.0703125 C35.4635475 51.08906829 33.7942762 51.10726869 32.125 51.125 C30.86236328 51.15013672 30.86236328 51.15013672 29.57421875 51.17578125 C28.76855469 51.18222656 27.96289062 51.18867188 27.1328125 51.1953125 C26.38918457 51.20578613 25.64555664 51.21625977 24.87939453 51.22705078 C23 51 23 51 21 49 C21.375 46.375 21.375 46.375 22 44 C25.77068832 43.913015 29.54111932 43.85961421 33.3125 43.8125 C34.38435547 43.78736328 35.45621094 43.76222656 36.56054688 43.73632812 C37.58857422 43.72666016 38.61660156 43.71699219 39.67578125 43.70703125 C40.62364502 43.6913208 41.57150879 43.67561035 42.5480957 43.65942383 C45 44 45 44 46.81005859 45.3425293 C48.61101699 47.85108624 48.36097807 49.95706915 48.3125 53 C48.30863281 54.051875 48.30476563 55.10375 48.30078125 56.1875 C48 59 48 59 46 62 C42.10215875 63.21158476 38.24227229 63.1034573 34.1875 63.0625 C33.02605469 63.05347656 31.86460937 63.04445313 30.66796875 63.03515625 C29.78753906 63.02355469 28.90710938 63.01195312 28 63 C28.09539062 63.60328125 28.19078125 64.2065625 28.2890625 64.828125 C28.39992187 65.62734375 28.51078125 66.4265625 28.625 67.25 C28.74101562 68.03890625 28.85703125 68.8278125 28.9765625 69.640625 C29.0033393 72.33615623 28.23772893 73.65430405 27 76 C27.81669817 78.13355094 27.81669817 78.13355094 29 80 C29 80.66 29 81.32 29 82 C29.763125 82.268125 30.52625 82.53625 31.3125 82.8125 C34 84 34 84 35.28125 85.53125 C37.78790321 87.6732991 39.9425442 87.51304001 43.1875 87.6875 C44.27417969 87.75324219 45.36085938 87.81898438 46.48046875 87.88671875 C47.31191406 87.92410156 48.14335937 87.96148437 49 88 C48.65514457 90.8842454 48.21744593 91.8207818 45.93359375 93.703125 C45.10988281 94.21359375 44.28617187 94.7240625 43.4375 95.25 C42.61121094 95.77078125 41.78492188 96.2915625 40.93359375 96.828125 C40.29550781 97.21484375 39.65742188 97.6015625 39 98 C35.109375 96.25 35.109375 96.25 34.125 94 C32.45125581 91.02445478 30.19725584 90.98377103 27 90 C21.45652174 86.73913043 21.45652174 86.73913043 19.6875 83.875 C17.26430741 81.18256379 14.71175892 81.07355954 11.23046875 80.4375 C8.66402055 79.9340986 6.38011861 79.07489227 4 78 C3.67 78.33 3.34 78.66 3 79 C4.485 79.495 4.485 79.495 6 80 C5.34 80 4.68 80 4 80 C4.20625 80.845625 4.4125 81.69125 4.625 82.5625 C5.0651981 86.59764924 4.11272422 89.10747375 3 93 C1.38891657 102.39618021 1.38891657 102.39618021 3.08984375 111.48828125 C4.61240426 113.51513295 4.61240426 113.51513295 7 116 C6.505 117.485 6.505 117.485 6 119 C1.68673316 118.49845734 -1.733521 117.97826026 -5 115 C-5.1875 111.25 -5.1875 111.25 -5.04296875 109.0859375 C-4.99107994 106.56697184 -5.77378496 104.56161043 -6.5546875 102.19140625 C-7.62640678 96.91741929 -7.11742592 91.35592666 -7 86 C-7 82.18835834 -7.37265234 80.34510352 -9 77 C-9.66 76.67 -10.32 76.34 -11 76 C-11.81640625 74.29296875 -11.81640625 74.29296875 -12.5625 72.1875 C-12.81128906 71.50042969 -13.06007812 70.81335938 -13.31640625 70.10546875 C-14 68 -14 68 -14.37109375 66.03125 C-15.2142437 63.30803278 -16.74311399 61.54820945 -18.5 59.3125 C-22.07415782 54.3934648 -22.9027647 51.02858842 -23 45 C-23.99 44.67 -24.98 44.34 -26 44 C-25.93037414 40.27185169 -25.74482361 36.65935078 -25 33 C-21.80861521 29.9811225 -20.42854206 30 -16 30 C-15.731875 29.319375 -15.46375 28.63875 -15.1875 27.9375 C-14 25 -14 25 -12.375 22.0625 C-10.2647474 17.31705634 -10.87512581 12.28868928 -11.08984375 7.20703125 C-11.00237904 4.08492137 -10.82231104 2.50343714 -9 0 C-5.44712603 -1.18429132 -3.58589143 -0.99184231 0 0 Z M-6 23 C-6 24.32 -6 25.64 -6 27 C-5.34 27 -4.68 27 -4 27 C-4 25.68 -4 24.36 -4 23 C-4.66 23 -5.32 23 -6 23 Z " fill="#1B1A17" transform="translate(191,84)"/>
<path d="M0 0 C2.39617748 3.32249529 1.98013814 5.76435864 1.375 9.6875 C0.77125829 15.18825783 1.6079035 18.27331532 4.1328125 23.10546875 C5 25 5 25 4.875 27.75 C4.441875 28.86375 4.441875 28.86375 4 30 C3.7525 30.78375 3.505 31.5675 3.25 32.375 C1.84111706 35.33365418 0.06311991 37.70135572 -1.9765625 40.25390625 C-3.33711331 42.2378307 -3.33711331 42.2378307 -3 46 C-3.99 46 -4.98 46 -6 46 C-6 45.01 -6 44.02 -6 43 C-7.98 43.495 -7.98 43.495 -10 44 C-9.67 43.01 -9.34 42.02 -9 41 C-8.34 41 -7.68 41 -7 41 C-7.61277612 38.03824877 -8.25372522 36.61941217 -10 34 C-10.04125 34.61875 -10.0825 35.2375 -10.125 35.875 C-10.41375 36.57625 -10.7025 37.2775 -11 38 C-14.0625 39.25 -14.0625 39.25 -17 40 C-17 40.66 -17 41.32 -17 42 C-18.65 41.67 -20.3 41.34 -22 41 C-22 41.66 -22 42.32 -22 43 C-22.99 42.67 -23.98 42.34 -25 42 C-25.28780289 38.94928934 -25.43668263 36.04060497 -25 33 C-21.82566993 30.09019744 -20.3475117 30 -16 30 C-15.731875 29.319375 -15.46375 28.63875 -15.1875 27.9375 C-14 25 -14 25 -12.375 22.0625 C-10.2647474 17.31705634 -10.87512581 12.28868928 -11.08984375 7.20703125 C-11.00237904 4.08492137 -10.82231104 2.50343714 -9 0 C-5.44712603 -1.18429132 -3.58589143 -0.99184231 0 0 Z M-6 23 C-6 24.32 -6 25.64 -6 27 C-5.34 27 -4.68 27 -4 27 C-4 25.68 -4 24.36 -4 23 C-4.66 23 -5.32 23 -6 23 Z " fill="#503F27" transform="translate(191,84)"/>
<path d="M0 0 C2.4765625 0.046875 2.4765625 0.046875 4.6875 0.4375 C6.706533 2.57190632 7.47370893 3.85329965 8.6875 6.4375 C9.74411257 8.37821697 10.80700714 10.31552236 11.875 12.25 C12.38417969 13.20519531 12.89335937 14.16039062 13.41796875 15.14453125 C14.49278602 17.33482359 14.49278602 17.33482359 15.6875 18.4375 C16.0175 12.4975 16.3475 6.5575 16.6875 0.4375 C18.9975 0.4375 21.3075 0.4375 23.6875 0.4375 C23.6875 10.3375 23.6875 20.2375 23.6875 30.4375 C18.3912037 33.08564815 18.3912037 33.08564815 14.6875 32.4375 C11.61315676 29.0139413 9.29629362 25.28742908 7 21.3125 C6.39800781 20.27867187 5.79601562 19.24484375 5.17578125 18.1796875 C3.6875 15.4375 3.6875 15.4375 2.6875 12.4375 C1.68405747 18.74485307 1.17876929 25.07190427 0.6875 31.4375 C-0.9625 31.7675 -2.6125 32.0975 -4.3125 32.4375 C-6.16021137 28.52448701 -6.51166951 25.60266166 -6.32421875 21.296875 C-6.27716797 20.14445312 -6.23011719 18.99203125 -6.18164062 17.8046875 C-6.12169922 16.61101562 -6.06175781 15.41734375 -6 14.1875 C-5.95166016 12.97835937 -5.90332031 11.76921875 -5.85351562 10.5234375 C-5.39940691 0.291621 -5.39940691 0.291621 0 0 Z M0.6875 9.4375 C1.6875 11.4375 1.6875 11.4375 1.6875 11.4375 Z " fill="#020202" transform="translate(7.3125,127.5625)"/>
<path d="M0 0 C3.79114878 7.27945431 7.38798261 14.59062632 10.5 22.1875 C10.76699707 22.82244385 11.03399414 23.4573877 11.30908203 24.11157227 C13.11976078 28.64071766 13.11976078 28.64071766 12 32 C8.7734375 32.09375 8.7734375 32.09375 5 31 C2.92645185 28.07881377 1.82199439 24.85836887 0.625 21.5 C-0.04834169 19.73914795 -0.72276309 17.97870826 -1.3984375 16.21875 C-1.68380371 15.43435547 -1.96916992 14.64996094 -2.26318359 13.84179688 C-2.8537649 12.01494267 -2.8537649 12.01494267 -4 11 C-4.99 13.64 -5.98 16.28 -7 19 C-5.68 18.67 -4.36 18.34 -3 18 C-1 21 -1 21 -1 25 C-3.97 25.33 -6.94 25.66 -10 26 C-10.99 28.475 -10.99 28.475 -12 31 C-14.31 31.33 -16.62 31.66 -19 32 C-20.33994705 27.98015885 -19.20578256 26.37772075 -17.625 22.5 C-17.16351563 21.3553125 -16.70203125 20.210625 -16.2265625 19.03125 C-15.82179688 18.0309375 -15.41703125 17.030625 -15 16 C-14.67 15.01 -14.34 14.02 -14 13 C-13.34 13 -12.68 13 -12 13 C-11.89042969 12.39671875 -11.78085937 11.7934375 -11.66796875 11.171875 C-9.9963802 2.74598148 -9.21520004 -0.24446321 0 0 Z " fill="#030303" transform="translate(317,128)"/>
<path d="M0 0 C5.19689119 -0.70466321 5.19689119 -0.70466321 8 0 C10.21956005 2.40408404 11.62753981 5.04393189 13 8 C15.08007969 5.9916472 16.83845793 4.29077573 18.25 1.75 C20 0 20 0 21.96484375 -0.25 C23.97828776 -0.25 25.99087091 -0.13174617 28 0 C26.32577602 4.85183276 23.64710538 7.93788218 20.265625 11.71875 C18.70508154 13.93666213 18.70508154 13.93666213 19.5390625 16.41796875 C21.21789681 19.3851064 23.08456617 22.08095149 25.125 24.8125 C25.84945312 25.78832031 26.57390625 26.76414063 27.3203125 27.76953125 C27.87460938 28.50558594 28.42890625 29.24164063 29 30 C26 32 26 32 22.6875 31.625 C17.86254411 30.10565219 15.60057822 26.09614884 13 22 C12.64808594 22.63808594 12.29617187 23.27617187 11.93359375 23.93359375 C7.87740115 30.7221563 7.87740115 30.7221563 3.25 32.1875 C0 32 0 32 -2 30 C1.15422267 25.17403931 4.28919117 20.42442592 8 16 C6.60972136 11.55110835 4.13956405 8.42999025 1.2421875 4.8671875 C0 3 0 3 0 0 Z " fill="#030303" transform="translate(91,128)"/>
<path d="M0 0 C3.77068832 -0.086985 7.54111932 -0.14038579 11.3125 -0.1875 C12.38435547 -0.21263672 13.45621094 -0.23777344 14.56054688 -0.26367188 C15.58857422 -0.27333984 16.61660156 -0.28300781 17.67578125 -0.29296875 C19.0975769 -0.31653442 19.0975769 -0.31653442 20.5480957 -0.34057617 C23 0 23 0 24.81005859 1.3425293 C26.61101699 3.85108624 26.36097807 5.95706915 26.3125 9 C26.30863281 10.051875 26.30476563 11.10375 26.30078125 12.1875 C26 15 26 15 24 18 C20.10215875 19.21158476 16.24227229 19.1034573 12.1875 19.0625 C11.02605469 19.05347656 9.86460937 19.04445312 8.66796875 19.03515625 C7.78753906 19.02355469 6.90710938 19.01195312 6 19 C6.09539062 19.60328125 6.19078125 20.2065625 6.2890625 20.828125 C6.45535156 22.02695313 6.45535156 22.02695313 6.625 23.25 C6.74101562 24.03890625 6.85703125 24.8278125 6.9765625 25.640625 C7.00368639 28.37109687 6.44098867 29.7061813 5 32 C4.34 32.66 3.68 33.32 3 34 C2.34 33.01 1.68 32.02 1 31 C0.13375 30.505 -0.7325 30.01 -1.625 29.5 C-2.40875 29.005 -3.1925 28.51 -4 28 C-4 27.01 -4 26.02 -4 25 C-3.01 25 -2.02 25 -1 25 C-1.03480469 24.15695313 -1.06960937 23.31390625 -1.10546875 22.4453125 C-1.13253906 21.34960938 -1.15960938 20.25390625 -1.1875 19.125 C-1.22230469 18.03445312 -1.25710937 16.94390625 -1.29296875 15.8203125 C-1.19628906 14.88960937 -1.09960938 13.95890625 -1 13 C2.04681061 10.96879293 2.60118324 10.75340125 6.01171875 10.8046875 C6.76904297 10.81113281 7.52636719 10.81757813 8.30664062 10.82421875 C9.09232422 10.84097656 9.87800781 10.85773438 10.6875 10.875 C11.48478516 10.88402344 12.28207031 10.89304688 13.10351562 10.90234375 C15.069139 10.92588415 17.03460775 10.96175453 19 11 C19 9.68 19 8.36 19 7 C17.08574219 7.03480469 17.08574219 7.03480469 15.1328125 7.0703125 C13.4635475 7.08906829 11.7942762 7.10726869 10.125 7.125 C8.86236328 7.15013672 8.86236328 7.15013672 7.57421875 7.17578125 C6.76855469 7.18222656 5.96289062 7.18867188 5.1328125 7.1953125 C4.01737061 7.21102295 4.01737061 7.21102295 2.87939453 7.22705078 C1 7 1 7 -1 5 C-0.625 2.375 -0.625 2.375 0 0 Z " fill="#030303" transform="translate(213,128)"/>
<path d="M0 0 C2.64 0 5.28 0 8 0 C10.31 4.29 12.62 8.58 15 13 C15.49628906 12.0615625 15.99257813 11.123125 16.50390625 10.15625 C17.1887187 8.93672097 17.87499395 7.71801255 18.5625 6.5 C18.88541016 5.87996094 19.20832031 5.25992188 19.54101562 4.62109375 C20.56640625 2.84375 20.56640625 2.84375 23 0 C26.77734375 -0.40625 26.77734375 -0.40625 30 0 C29.45871397 4.99722994 27.05960414 8.49860651 24.5 12.6875 C20.93034183 18.72665032 18.56719214 23.79807723 19 31 C14.25 32.125 14.25 32.125 12 31 C11.78022812 29.33950132 11.62707677 27.6701518 11.5 26 C10.28092687 17.42516361 5.51742684 10.72674874 0.88623047 3.59716797 C0 2 0 2 0 0 Z " fill="#030303" transform="translate(346,128)"/>
<path d="M0 0 C0.9583374 0.00523682 1.9166748 0.01047363 2.90405273 0.01586914 C4.45576172 0.02070313 4.45576172 0.02070313 6.03881836 0.02563477 C7.12743164 0.03401367 8.21604492 0.04239258 9.33764648 0.05102539 C10.97636719 0.05779297 10.97636719 0.05779297 12.64819336 0.06469727 C15.35723144 0.07652713 18.06616248 0.09300996 20.77514648 0.11352539 C20.77514648 2.09352539 20.77514648 4.07352539 20.77514648 6.11352539 C14.83514648 6.44352539 8.89514648 6.77352539 2.77514648 7.11352539 C3.43514648 8.43352539 4.09514648 9.75352539 4.77514648 11.11352539 C7.60032374 11.57941086 10.0659421 11.8096804 12.90014648 11.86352539 C13.65424805 11.89317383 14.40834961 11.92282227 15.18530273 11.95336914 C17.04800601 12.02410471 18.91158404 12.07107522 20.77514648 12.11352539 C20.77514648 14.42352539 20.77514648 16.73352539 20.77514648 19.11352539 C18.04646915 19.33615177 15.31822691 19.54204863 12.58764648 19.73852539 C11.8187207 19.80297852 11.04979492 19.86743164 10.25756836 19.93383789 C5.98474539 20.22725063 2.55864943 20.43635394 -1.22485352 18.11352539 C-3.73493169 14.8195189 -3.4619082 11.4489647 -3.41235352 7.42602539 C-3.4059082 6.2671582 -3.39946289 5.10829102 -3.39282227 3.91430664 C-3.16776685 0.16163849 -3.16776685 0.16163849 0 0 Z " fill="#030303" transform="translate(51.224853515625,139.886474609375)"/>
<path d="M0 0 C0.38218767 1.65614657 0.71395102 3.32457024 1 5 C-0.66342837 6.66342837 -2.7825709 6.36048097 -5.0625 6.5625 C-5.98160156 6.64628906 -6.90070313 6.73007813 -7.84765625 6.81640625 C-8.55792969 6.87699219 -9.26820313 6.93757812 -10 7 C-9.98952637 7.68626465 -9.97905273 8.3725293 -9.96826172 9.07958984 C-9.92678126 12.17802289 -9.90069931 15.27639761 -9.875 18.375 C-9.85824219 19.45523438 -9.84148437 20.53546875 -9.82421875 21.6484375 C-9.81777344 22.6796875 -9.81132812 23.7109375 -9.8046875 24.7734375 C-9.79421387 25.72653809 -9.78374023 26.67963867 -9.77294922 27.66162109 C-10 30 -10 30 -12 32 C-13.65 31.67 -15.3 31.34 -17 31 C-17.33 23.08 -17.66 15.16 -18 7 C-21.3 6.67 -24.6 6.34 -28 6 C-28 4.02 -28 2.04 -28 0 C-24.08375299 -0.19706355 -20.16699634 -0.38099159 -16.25 -0.5625 C-15.13882813 -0.61857422 -14.02765625 -0.67464844 -12.8828125 -0.73242188 C-11.81289062 -0.78076172 -10.74296875 -0.82910156 -9.640625 -0.87890625 C-8.65610352 -0.9260376 -7.67158203 -0.97316895 -6.65722656 -1.02172852 C-4.2293192 -1.00187518 -2.30838443 -0.71119313 0 0 Z " fill="#020202" transform="translate(164,128)"/>
<path d="M0 0 C1.32 0 2.64 0 4 0 C4 1.32 4 2.64 4 4 C4.66 4 5.32 4 6 4 C6 4.99 6 5.98 6 7 C7.98 7.66 9.96 8.32 12 9 C12.33 8.34 12.66 7.68 13 7 C13 7.99 13 8.98 13 10 C12.34 10 11.68 10 11 10 C11 11.32 11 12.64 11 14 C10.01 14 9.02 14 8 14 C8.66 14.66 9.32 15.32 10 16 C5.25 15.125 5.25 15.125 3 14 C2.67 14.66 2.34 15.32 2 16 C1.67 16 1.34 16 1 16 C2.98 16.99 4.96 17.98 7 19 C7 18.34 7 17.68 7 17 C8.65 17.33 10.3 17.66 12 18 C12.33 16.68 12.66 15.36 13 14 C13.33 15.98 13.66 17.96 14 20 C11.03 20.33 8.06 20.66 5 21 C6.65449923 30.56023976 6.65449923 30.56023976 11.625 38.625 C13.6292597 40.6292597 13.80050343 42.20704796 14 45 C13.0625 47.8125 13.0625 47.8125 12 50 C10.23537317 46.91190305 10 45.76687864 10 42 C9.19838209 39.32854463 9.19838209 39.32854463 8 37 C7.34 36.67 6.68 36.34 6 36 C5.18359375 34.29296875 5.18359375 34.29296875 4.4375 32.1875 C4.18871094 31.50042969 3.93992188 30.81335938 3.68359375 30.10546875 C3 28 3 28 2.62890625 26.03125 C1.7857563 23.30803278 0.25688601 21.54820945 -1.5 19.3125 C-5.07415782 14.3934648 -5.9027647 11.02858842 -6 5 C-6.99 4.67 -7.98 4.34 -9 4 C-8.34 3.34 -7.68 2.68 -7 2 C-6.34 2.33 -5.68 2.66 -5 3 C-5 2.34 -5 1.68 -5 1 C-3.35 1.33 -1.7 1.66 0 2 C0 1.34 0 0.68 0 0 Z " fill="#1A1814" transform="translate(174,124)"/>
<path d="M0 0 C0.66 0 1.32 0 2 0 C2.33 2.31 2.66 4.62 3 7 C3.66 7 4.32 7 5 7 C6.73662334 10.22515763 7.8905928 13.51329166 9 17 C8.34 17 7.68 17 7 17 C7 17.66 7 18.32 7 19 C7.66 19 8.32 19 9 19 C8.67 21.64 8.34 24.28 8 27 C7.01 27 6.02 27 5 27 C5 26.01 5 25.02 5 24 C3.68 24.33 2.36 24.66 1 25 C1.33 24.01 1.66 23.02 2 22 C2.66 22 3.32 22 4 22 C3.38722388 19.03824877 2.74627478 17.61941217 1 15 C0.95875 15.61875 0.9175 16.2375 0.875 16.875 C0.58625 17.57625 0.2975 18.2775 0 19 C-3.0625 20.25 -3.0625 20.25 -6 21 C-6 21.66 -6 22.32 -6 23 C-7.65 22.67 -9.3 22.34 -11 22 C-11 22.66 -11 23.32 -11 24 C-11.99 23.67 -12.98 23.34 -14 23 C-14.28780289 19.94928934 -14.43668263 17.04060497 -14 14 C-10.82566993 11.09019744 -9.3475117 11 -5 11 C-4.731875 10.29875 -4.46375 9.5975 -4.1875 8.875 C-2.9318551 5.8350176 -1.49764877 2.9272226 0 0 Z " fill="#5F4C39" transform="translate(180,103)"/>
<path d="M0 0 C1.98 0 3.96 0 6 0 C6.02505615 0.65597168 6.0501123 1.31194336 6.07592773 1.98779297 C6.1917326 4.95040183 6.31452886 7.91268031 6.4375 10.875 C6.47681641 11.90753906 6.51613281 12.94007813 6.55664062 14.00390625 C6.61948242 15.48310547 6.61948242 15.48310547 6.68359375 16.9921875 C6.72025146 17.90339355 6.75690918 18.81459961 6.79467773 19.75341797 C6.86577065 22.03483481 6.86577065 22.03483481 8 24 C10.54941373 24.31241371 13.00361513 24.51303421 15.5625 24.625 C16.27341797 24.66367188 16.98433594 24.70234375 17.71679688 24.7421875 C19.47742425 24.83671783 21.23867728 24.91945817 23 25 C23 26.98 23 28.96 23 31 C19.55334258 32.14888581 16.75648095 32.2039347 13.125 32.25 C11.91070312 32.27578125 10.69640625 32.3015625 9.4453125 32.328125 C5.76058479 31.97719855 3.92183227 31.22102379 1 29 C-0.38308781 26.23382437 -0.11210196 23.98982 -0.09765625 20.8984375 C-0.09443359 19.68671875 -0.09121094 18.475 -0.08789062 17.2265625 C-0.07951172 15.95554688 -0.07113281 14.68453125 -0.0625 13.375 C-0.05798828 12.09625 -0.05347656 10.8175 -0.04882812 9.5 C-0.03701203 6.33328708 -0.02053815 3.16666644 0 0 Z " fill="#020202" transform="translate(257,128)"/>
<path d="M0 0 C1.1875 2 1.1875 2 2 4 C3.64551962 4.71727778 5.31422289 5.38325228 7 6 C7.63035156 6.75023437 7.63035156 6.75023437 8.2734375 7.515625 C10.7842053 9.67420365 12.92871547 9.51229653 16.1875 9.6875 C17.27417969 9.75324219 18.36085937 9.81898438 19.48046875 9.88671875 C20.72763672 9.94279297 20.72763672 9.94279297 22 10 C21.65514457 12.8842454 21.21744593 13.8207818 18.93359375 15.703125 C18.10988281 16.21359375 17.28617188 16.7240625 16.4375 17.25 C15.61121094 17.77078125 14.78492188 18.2915625 13.93359375 18.828125 C13.29550781 19.21484375 12.65742188 19.6015625 12 20 C8.109375 18.25 8.109375 18.25 7.125 16 C5.45125581 13.02445478 3.19725584 12.98377103 0 12 C-3.87815323 9.71873339 -6.43548134 7.66359808 -9 4 C-9.99 3.34 -10.98 2.68 -12 2 C-12 1.34 -12 0.68 -12 0 C-8.09669077 -2.92748192 -4.19176714 -1.84848529 0 0 Z " fill="#503B27" transform="translate(218,162)"/>
<path d="M0 0 C2 1 2 1 4 4 C3.0022242 6.99332739 2.2477975 7.94766315 0 10 C1.32 9.67 2.64 9.34 4 9 C4 9.99 4 10.98 4 12 C5.32 12 6.64 12 8 12 C7.67 13.32 7.34 14.64 7 16 C4.36 15.01 1.72 14.02 -1 13 C-1 12.01 -1 11.02 -1 10 C-1.66 10 -2.32 10 -3 10 C-3 8.68 -3 7.36 -3 6 C-3.66 5.67 -4.32 5.34 -5 5 C-3.68 4.67 -2.36 4.34 -1 4 C-0.67 2.68 -0.34 1.36 0 0 Z M4 16 C4.66 16 5.32 16 6 16 C7.6875 18.3125 7.6875 18.3125 9 21 C8.67 21.99 8.34 22.98 8 24 C8.66 24.33 9.32 24.66 10 25 C6.33352703 28.34296065 3.86924097 29.3360126 -1 30 C-1.33 30.66 -1.66 31.32 -2 32 C-2.33 30.02 -2.66 28.04 -3 26 C-1.88625 26.020625 -0.7725 26.04125 0.375 26.0625 C3.83215921 26.26380718 3.83215921 26.26380718 6 25 C6 24.01 6 23.02 6 22 C5.67 22.66 5.34 23.32 5 24 C3.35 23.67 1.7 23.34 0 23 C0 23.66 0 24.32 0 25 C-3.68754757 24.50168276 -5.60490662 23.89932357 -8 21 C-7.67 20.34 -7.34 19.68 -7 19 C-6.34 19.66 -5.68 20.32 -5 21 C-4.01 20.67 -3.02 20.34 -2 20 C-1.34 20 -0.68 20 0 20 C3.04134491 18.33075929 3.04134491 18.33075929 4 16 Z " fill="#24231F" transform="translate(181,118)"/>
<path d="M0 0 C2.64465038 3.1254959 3.84414715 6.08788267 5 10 C6.32 10 7.64 10 9 10 C8.8453125 11.5159375 8.8453125 11.5159375 8.6875 13.0625 C9.04488046 17.56549379 10.15143985 19.11332318 13.00390625 22.421875 C13.33261719 22.94265625 13.66132813 23.4634375 14 24 C13.67 24.99 13.34 25.98 13 27 C8.68673316 26.49845734 5.266479 25.97826026 2 23 C1.8125 19.25 1.8125 19.25 1.95703125 17.109375 C2.10895733 14.7315559 2.10895733 14.7315559 1 11.5 C-0.1655276 7.42065339 -0.14808099 4.22030821 0 0 Z " fill="#281D12" transform="translate(184,176)"/>
<path d="M0 0 C7.92 0 15.84 0 24 0 C24 1.98 24 3.96 24 6 C16.08 6 8.16 6 0 6 C0 4.02 0 2.04 0 0 Z " fill="#010101" transform="translate(48,128)"/>
<path d="M0 0 C0.99 0.99 1.98 1.98 3 3 C1.53255528 7.53573824 -0.50932589 10.73697855 -4 14 C-6.85463753 14.51372883 -9.07143752 14.29781991 -12 14 C-12.33 14.66 -12.66 15.32 -13 16 C-12.01 16.33 -11.02 16.66 -10 17 C-10.33 17.66 -10.66 18.32 -11 19 C-11.99 18.67 -12.98 18.34 -14 18 C-14.28780289 14.94928934 -14.43668263 12.04060497 -14 9 C-10.82566993 6.09019744 -9.3475117 6 -5 6 C-4.67 5.34 -4.34 4.68 -4 4 C-3.67 4.33 -3.34 4.66 -3 5 C-2.67 4.01 -2.34 3.02 -2 2 C-1.34 2 -0.68 2 0 2 C0 1.34 0 0.68 0 0 Z " fill="#49351F" transform="translate(180,108)"/>
<path d="M0 0 C1.82544276 1.98417691 2.01396871 3.3472801 1.95703125 6.0078125 C1.75 8.1875 1.75 8.1875 1 12 C0.01 12.495 0.01 12.495 -1 13 C-1 12.34 -1 11.68 -1 11 C-4.3 10.01 -7.6 9.02 -11 8 C-10.5154185 1.45814978 -10.5154185 1.45814978 -8.3125 -0.5 C-5.1853766 -1.17613479 -3.05733037 -0.93049185 0 0 Z " fill="#2A1D91" transform="translate(191,84)"/>
<path d="M0 0 C4.29 0.33 8.58 0.66 13 1 C11.85201226 5.59195094 11.26471427 5.87820524 7.4375 8.25 C6.61121094 8.77078125 5.78492188 9.2915625 4.93359375 9.828125 C4.29550781 10.21484375 3.65742188 10.6015625 3 11 C-0.8359375 9.3125 -0.8359375 9.3125 -2.3125 6.5 C-3 4 -3 4 -2 2 C-1.34 2 -0.68 2 0 2 C0 1.34 0 0.68 0 0 Z " fill="#0E0D0B" transform="translate(227,171)"/>
<path d="M0 0 C-0.33 5.94 -0.66 11.88 -1 18 C-1.66 18 -2.32 18 -3 18 C-3.33 18.99 -3.66 19.98 -4 21 C-4.66 19.02 -5.32 17.04 -6 15 C-6.66 15 -7.32 15 -8 15 C-8.31369549 5.74598317 -8.31369549 5.74598317 -6 2 C-2.0952381 0 -2.0952381 0 0 0 Z " fill="#4E3A27" transform="translate(193,167)"/>
<path d="M0 0 C2 1 2 1 2.67578125 2.70703125 C2.88589844 3.40183594 3.09601563 4.09664062 3.3125 4.8125 C5.53814851 10.94394345 9.60025185 12.84445348 15.25 15.625 C16.12140625 16.02976563 16.9928125 16.43453125 17.890625 16.8515625 C20 18 20 18 21 20 C19.35 20.66 17.7 21.32 16 22 C15.67 21.01 15.34 20.02 15 19 C11.48809191 17.77030122 11.48809191 17.77030122 8 17 C8 16.34 8 15.68 8 15 C6.02 15.99 6.02 15.99 4 17 C4 15.02 4 13.04 4 11 C3.34 10.67 2.68 10.34 2 10 C0.55487596 6.3871899 0 3.93312158 0 0 Z " fill="#0F0E0C" transform="translate(188,133)"/>
<path d="M0 0 C1.65 0 3.3 0 5 0 C5.226875 0.61875 5.45375 1.2375 5.6875 1.875 C6.8440732 4.23244106 6.8440732 4.23244106 9.5 4.9375 C12 6 12 6 13.3125 8.625 C13.6528125 9.800625 13.6528125 9.800625 14 11 C13.34 11 12.68 11 12 11 C12 11.66 12 12.32 12 13 C11.01 13.33 10.02 13.66 9 14 C8.401875 13.360625 7.80375 12.72125 7.1875 12.0625 C5.09189663 9.79689611 5.09189663 9.79689611 2 9 C2.33 8.34 2.66 7.68 3 7 C3.66 7 4.32 7 5 7 C4.21869929 4.50447516 4.21869929 4.50447516 3 2 C2.01 1.67 1.02 1.34 0 1 C0 0.67 0 0.34 0 0 Z " fill="#4F3923" transform="translate(213,162)"/>
<path d="M0 0 C0.99 0.33 1.98 0.66 3 1 C3.84375 3.0390625 3.84375 3.0390625 4.5 5.625 C6.39516824 13.22674135 6.39516824 13.22674135 10.625 19.625 C12.6292597 21.6292597 12.80050343 23.20704796 13 26 C12.0625 28.8125 12.0625 28.8125 11 31 C9.23537317 27.91190305 9 26.76687864 9 23 C8.19838209 20.32854463 8.19838209 20.32854463 7 18 C6.34 17.67 5.68 17.34 5 17 C4.18359375 15.29296875 4.18359375 15.29296875 3.4375 13.1875 C3.18871094 12.50042969 2.93992188 11.81335938 2.68359375 11.10546875 C1.49924801 7.45768388 0.73149746 3.76198696 0 0 Z " fill="#0E0C0A" transform="translate(175,143)"/>
<path d="M0 0 C2 1 2 1 4 4 C3.0022242 6.99332739 2.2477975 7.94766315 0 10 C1.32 9.67 2.64 9.34 4 9 C4 9.99 4 10.98 4 12 C5.32 12 6.64 12 8 12 C8 12.66 8 13.32 8 14 C5.08517222 14.80967438 3.53886783 15.21845993 0.6875 14.0625 C0.130625 13.711875 -0.42625 13.36125 -1 13 C-1 12.01 -1 11.02 -1 10 C-1.66 10 -2.32 10 -3 10 C-3 8.68 -3 7.36 -3 6 C-3.66 5.67 -4.32 5.34 -5 5 C-3.68 4.67 -2.36 4.34 -1 4 C-0.67 2.68 -0.34 1.36 0 0 Z " fill="#4E3B29" transform="translate(181,118)"/>
<path d="M0 0 C2 1 2 1 3.125 4.0625 C3.41375 5.031875 3.7025 6.00125 4 7 C3.34 7 2.68 7 2 7 C2 7.66 2 8.32 2 9 C2.66 9 3.32 9 4 9 C3.67 11.64 3.34 14.28 3 17 C2.01 17 1.02 17 0 17 C0 16.01 0 15.02 0 14 C-1.32 14.33 -2.64 14.66 -4 15 C-3.67 14.01 -3.34 13.02 -3 12 C-2.34 12 -1.68 12 -1 12 C-1.144375 11.4225 -1.28875 10.845 -1.4375 10.25 C-1.623125 9.5075 -1.80875 8.765 -2 8 C-2.20625 7.319375 -2.4125 6.63875 -2.625 5.9375 C-3 4 -3 4 -2 1 C-1.34 0.67 -0.68 0.34 0 0 Z " fill="#513D27" transform="translate(185,113)"/>
<path d="M0 0 C0.33 0 0.66 0 1 0 C1.66 2.97 2.32 5.94 3 9 C3.66 8.67 4.32 8.34 5 8 C5 11.63 5 15.26 5 19 C4.01 19.33 3.02 19.66 2 20 C1.67 18.35 1.34 16.7 1 15 C1.66 15 2.32 15 3 15 C3 13.68 3 12.36 3 11 C2.34 11 1.68 11 1 11 C1 11.99 1 12.98 1 14 C0.34 14 -0.32 14 -1 14 C-1.12375 12.865625 -1.2475 11.73125 -1.375 10.5625 C-1.58125 9.386875 -1.7875 8.21125 -2 7 C-2.66 6.67 -3.32 6.34 -4 6 C-3.01 6 -2.02 6 -1 6 C-0.67 4.02 -0.34 2.04 0 0 Z " fill="#443520" transform="translate(184,96)"/>
<path d="M0 0 C0.33 0.99 0.66 1.98 1 3 C1.99 3.33 2.98 3.66 4 4 C3.34 4 2.68 4 2 4 C2.309375 5.2684375 2.309375 5.2684375 2.625 6.5625 C3.06519957 10.59766272 2.19765999 13.14087337 1 17 C0.56930508 19.66375447 0.2826579 22.31474992 0 25 C-0.33 25 -0.66 25 -1 25 C-2.03863773 18.76817361 -1.83288874 13.25307239 -1 7 C-1.99 7 -2.98 7 -4 7 C-2.92598892 4.08482708 -2.22189824 2.22189824 0 0 Z " fill="#1A130C" transform="translate(193,160)"/>
<path d="M0 0 C0.66 0.33 1.32 0.66 2 1 C2 1.99 2 2.98 2 4 C2.66 4 3.32 4 4 4 C4.33 4.66 4.66 5.32 5 6 C5.66 4.68 6.32 3.36 7 2 C9.0625 4.3125 9.0625 4.3125 11 7 C10.67 7.99 10.34 8.98 10 10 C5.67810149 9.49745366 2.40579311 8.8047708 -1 6 C-1.375 3.375 -1.375 3.375 -1 1 C-0.67 0.67 -0.34 0.34 0 0 Z " fill="#090909" transform="translate(187,193)"/>
<path d="M0 0 C3.63 0.66 7.26 1.32 11 2 C11 3.98 11 5.96 11 8 C10.34 8 9.68 8 9 8 C8.34 6.68 7.68 5.36 7 4 C6.01 4 5.02 4 4 4 C3.67 5.98 3.34 7.96 3 10 C2.34 10 1.68 10 1 10 C0.67 6.7 0.34 3.4 0 0 Z " fill="#554A58" transform="translate(180,92)"/>
<path d="M0 0 C2 1 2 1 3.1875 3.25 C4.59025338 7.99778066 2.89141247 11.58670425 1 16 C0.34 15.67 -0.32 15.34 -1 15 C-2.18531633 9.96240561 -1.88861961 6.77709666 0 2 C0 1.34 0 0.68 0 0 Z " fill="#322A20" transform="translate(192,103)"/>
<path d="M0 0 C3.3 0 6.6 0 10 0 C8.85201226 4.59195094 8.26471427 4.87820524 4.4375 7.25 C3.61121094 7.77078125 2.78492188 8.2915625 1.93359375 8.828125 C0.97646484 9.40820312 0.97646484 9.40820312 0 10 C-0.66 9.67 -1.32 9.34 -2 9 C0 7 2 5 4 3 C2.68 2.01 1.36 1.02 0 0 Z " fill="#070705" transform="translate(230,172)"/>
<path d="M0 0 C0.33 3.3 0.66 6.6 1 10 C0.34 10 -0.32 10 -1 10 C-1.33 10.99 -1.66 11.98 -2 13 C-3.59138085 8.82262526 -4.21278058 5.46839215 -4 1 C-1 0 -1 0 0 0 Z " fill="#513B25" transform="translate(191,175)"/>
<path d="M0 0 C2.64 0.33 5.28 0.66 8 1 C9.0257259 5.41062136 9.03684712 7.92630576 7 12 C6.67 11.34 6.34 10.68 6 10 C5.01 9.34 4.02 8.68 3 8 C3.66 8 4.32 8 5 8 C5 6.02 5 4.04 5 2 C3.35 1.67 1.7 1.34 0 1 C0 0.67 0 0.34 0 0 Z " fill="#1D0F90" transform="translate(184,85)"/>
<path d="M0 0 C1.67542976 0.28604898 3.34385343 0.61781233 5 1 C6.125 4.75 6.125 4.75 5 7 C2.03 6.505 2.03 6.505 -1 6 C-1.042721 4.33388095 -1.04063832 2.66617115 -1 1 C-0.67 0.67 -0.34 0.34 0 0 Z " fill="#3018CE" transform="translate(184,86)"/>
<path d="M0 0 C2.29633824 3.44450737 2.54016485 5.93812283 3 10 C1.68 9.67 0.36 9.34 -1 9 C-0.67 8.34 -0.34 7.68 0 7 C-0.66 7 -1.32 7 -2 7 C-2 5.02 -2 3.04 -2 1 C-1.34 0.67 -0.68 0.34 0 0 Z " fill="#151413" transform="translate(191,190)"/>
<path d="M0 0 C2.31 0 4.62 0 7 0 C7 0.66 7 1.32 7 2 C7.99 2.66 8.98 3.32 10 4 C4.62694301 4.96891192 4.62694301 4.96891192 2 5 C0 3.5625 0 3.5625 -1 2 C-0.67 1.34 -0.34 0.68 0 0 Z " fill="#090909" transform="translate(267,153)"/>
<path d="M0 0 C0 3.63 0 7.26 0 11 C-0.99 11.33 -1.98 11.66 -3 12 C-3.33 10.35 -3.66 8.7 -4 7 C-3.34 7 -2.68 7 -2 7 C-2 5.68 -2 4.36 -2 3 C-2.66 3 -3.32 3 -4 3 C-4 2.34 -4 1.68 -4 1 C-1 0 -1 0 0 0 Z " fill="#3E2517" transform="translate(189,104)"/>
<path d="M0 0 C0 0.99 0 1.98 0 3 C1.32 3 2.64 3 4 3 C4 3.66 4 4.32 4 5 C1.08517222 5.80967438 -0.46113217 6.21845993 -3.3125 5.0625 C-3.869375 4.711875 -4.42625 4.36125 -5 4 C-5 3.01 -5 2.02 -5 1 C-2 0 -2 0 0 0 Z " fill="#40362C" transform="translate(185,127)"/>
<path d="M0 0 C1.485 0.99 1.485 0.99 3 2 C3.99 1.67 4.98 1.34 6 1 C8.6875 1.9375 8.6875 1.9375 11 3 C10.01 3.33 9.02 3.66 8 4 C8 4.66 8 5.32 8 6 C5.21788056 5.62403791 3.4120716 5.32681541 1.1875 3.5625 C0 2 0 2 0 0 Z " fill="#35332F" transform="translate(173,137)"/>
<path d="M0 0 C5.75 1.75 5.75 1.75 8 4 C5.69 4.66 3.38 5.32 1 6 C0.67 4.02 0.34 2.04 0 0 Z " fill="#23231F" transform="translate(228,172)"/>
<path d="M0 0 C0.99 0 1.98 0 3 0 C3.33 1.32 3.66 2.64 4 4 C4.66 4 5.32 4 6 4 C6 4.66 6 5.32 6 6 C8.31 6.33 10.62 6.66 13 7 C11.02 7.99 11.02 7.99 9 9 C4.77728219 6.46636932 2.21689838 4.43379675 0 0 Z " fill="#584C36" transform="translate(209,165)"/>
<path d="M0 0 C0.66 0.33 1.32 0.66 2 1 C2.36923077 6.53846154 2.36923077 6.53846154 0.5 8.875 C-0.2425 9.431875 -0.2425 9.431875 -1 10 C-1.66 9.67 -2.32 9.34 -3 9 C-2.44271087 5.65626525 -1.64826111 2.96687001 0 0 Z " fill="#493725" transform="translate(190,113)"/>
<path d="M0 0 C2 2 2 2 2.125 5.125 C2.08375 6.07375 2.0425 7.0225 2 8 C1.67 7.34 1.34 6.68 1 6 C-1.52733235 5.34444881 -1.52733235 5.34444881 -4 5 C-3.67 4.01 -3.34 3.02 -3 2 C-2.01 2 -1.02 2 0 2 C0 1.34 0 0.68 0 0 Z " fill="#524230" transform="translate(175,112)"/>
<path d="M0 0 C0.66 0 1.32 0 2 0 C2 1.32 2 2.64 2 4 C1.34 4 0.68 4 0 4 C0 4.99 0 5.98 0 7 C-0.66 7 -1.32 7 -2 7 C-2.33 8.32 -2.66 9.64 -3 11 C-3.75 9.4375 -3.75 9.4375 -4 7 C-2.86915563 4.49713591 -1.47860484 2.32992278 0 0 Z " fill="#685C4A" transform="translate(180,103)"/>
<path d="M0 0 C0.66 1.32 1.32 2.64 2 4 C1.34 4 0.68 4 0 4 C0.33 4.99 0.66 5.98 1 7 C0.0625 10.1875 0.0625 10.1875 -1 13 C-1.33 13 -1.66 13 -2 13 C-2.16682272 8.07872966 -2.24828052 4.49656104 0 0 Z " fill="#3D2E1E" transform="translate(187,169)"/>
<path d="M0 0 C2 3 2 3 2 7 C0.68 7 -0.64 7 -2 7 C-2 5.02 -2 3.04 -2 1 C-1.34 0.67 -0.68 0.34 0 0 Z " fill="#544435" transform="translate(187,95)"/>
<path d="M0 0 C0.66 1.98 1.32 3.96 2 6 C1.01 6 0.02 6 -1 6 C-1 5.01 -1 4.02 -1 3 C-2.32 3.33 -3.64 3.66 -5 4 C-4.67 3.01 -4.34 2.02 -4 1 C-2 0 -2 0 0 0 Z " fill="#6E5E52" transform="translate(186,124)"/>
<path d="M0 0 C0.33 0.99 0.66 1.98 1 3 C0.01 3.33 -0.98 3.66 -2 4 C-2 5.32 -2 6.64 -2 8 C-1.01 8.33 -0.02 8.66 1 9 C0.67 9.66 0.34 10.32 0 11 C-0.99 10.67 -1.98 10.34 -3 10 C-3 7.36 -3 4.72 -3 2 C-2.01 2 -1.02 2 0 2 C0 1.34 0 0.68 0 0 Z " fill="#493A2C" transform="translate(169,116)"/>
<path d="M0 0 C0.66 0.33 1.32 0.66 2 1 C3.33059914 4.99179743 2.81502739 7.26317891 1 11 C0.01 10.67 -0.98 10.34 -2 10 C-1.855625 9.44570312 -1.71125 8.89140625 -1.5625 8.3203125 C-1.376875 7.59585938 -1.19125 6.87140625 -1 6.125 C-0.814375 5.40570313 -0.62875 4.68640625 -0.4375 3.9453125 C0.07313965 2.00710683 0.07313965 2.00710683 0 0 Z " fill="#3E2E21" transform="translate(192,103)"/>
<path d="M0 0 C0.66 0.33 1.32 0.66 2 1 C2 1.66 2 2.32 2 3 C1.34 3 0.68 3 0 3 C0 3.66 0 4.32 0 5 C-0.99 5.33 -1.98 5.66 -3 6 C-3.99 5.01 -4.98 4.02 -6 3 C-4.02 2.67 -2.04 2.34 0 2 C0 1.34 0 0.68 0 0 Z " fill="#3A3128" transform="translate(225,170)"/>
<path d="M0 0 C2.375 -0.1875 2.375 -0.1875 5 0 C5.66 0.99 6.32 1.98 7 3 C6.67 3.66 6.34 4.32 6 5 C5.01 4.67 4.02 4.34 3 4 C3 3.34 3 2.68 3 2 C2.01 1.67 1.02 1.34 0 1 C0 0.67 0 0.34 0 0 Z " fill="#3B2A1A" transform="translate(213,162)"/>
<path d="M0 0 C0.66 0 1.32 0 2 0 C1.67 0.66 1.34 1.32 1 2 C0.67 1.34 0.34 0.68 0 0 Z M-3 2 C-1.68 2 -0.36 2 1 2 C0.34 3.65 -0.32 5.3 -1 7 C-0.34 7.33 0.32 7.66 1 8 C0.01 8.33 -0.98 8.66 -2 9 C-2.33 6.69 -2.66 4.38 -3 2 Z " fill="#12110E" transform="translate(171,129)"/>
<path d="M0 0 C2 1 2 1 2 1 Z " fill="#000000" transform="translate(192,140)"/>
<path d="" fill="#000000" transform="translate(0,0)"/>
<path d="" fill="#000000" transform="translate(0,0)"/>
<path d="" fill="#663333" transform="translate(0,0)"/>
<path d="" fill="#000000" transform="translate(0,0)"/>
<path d="" fill="#000000" transform="translate(0,0)"/>
<path d="" fill="#000000" transform="translate(0,0)"/>
<path d="" fill="#000000" transform="translate(0,0)"/>
<path d="" fill="#000000" transform="translate(0,0)"/>
<path d="" fill="#000000" transform="translate(0,0)"/>
<path d="" fill="#000000" transform="translate(0,0)"/>
<path d="" fill="#000000" transform="translate(0,0)"/>
<path d="" fill="#000000" transform="translate(0,0)"/>
<path d="" fill="#000000" transform="translate(0,0)"/>
<path d="" fill="#000000" transform="translate(0,0)"/>
<path d="" fill="#000000" transform="translate(0,0)"/>
<path d="" fill="#000000" transform="translate(0,0)"/>
<path d="" fill="#000000" transform="translate(0,0)"/>
<path d="" fill="#000000" transform="translate(0,0)"/>
<path d="" fill="#000000" transform="translate(0,0)"/>
<path d="" fill="#000000" transform="translate(0,0)"/>
<path d="" fill="#000000" transform="translate(0,0)"/>
<path d="" fill="#000000" transform="translate(0,0)"/>
<path d="" fill="#000000" transform="translate(0,0)"/>
<path d="" fill="#000000" transform="translate(0,0)"/>
<path d="" fill="#000000" transform="translate(0,0)"/>
<path d="" fill="#000000" transform="translate(0,0)"/>
<path d="" fill="#000000" transform="translate(0,0)"/>
<path d="" fill="#000000" transform="translate(0,0)"/>
<path d="" fill="#000000" transform="translate(0,0)"/>
<path d="" fill="#000000" transform="translate(0,0)"/>
<path d="" fill="#000000" transform="translate(0,0)"/>
</svg>
